<?xml version="1.0" encoding="UTF-8"?>
<svg version="1.1" xmlns="http://www.w3.org/2000/svg" width="1000" height="1000">
<path d="M0 0 C330 0 660 0 1000 0 C1000 330 1000 660 1000 1000 C670 1000 340 1000 0 1000 C0 670 0 340 0 0 Z " fill="#000000" transform="translate(0,0)"/>
<path d="M0 0 C11.04135229 10.11676316 18.66797213 20.9480394 24.71850586 34.57983398 C25.14131836 35.52729492 25.56413086 36.47475586 25.99975586 37.45092773 C36.36668204 63.25043722 34.07263221 95.73083866 23.72631836 121.13452148 C17.0147309 136.54802923 5.79962233 150.80092477 -9.28149414 158.57983398 C-10.09618164 159.01166992 -10.91086914 159.44350586 -11.75024414 159.88842773 C-21.60593383 164.28394366 -34.96017653 164.3733404 -45.21899414 161.14233398 C-54.48346941 157.06481221 -63.55299475 149.99104611 -69.28149414 141.57983398 C-69.28149414 140.91983398 -69.28149414 140.25983398 -69.28149414 139.57983398 C-68.72461914 139.31170898 -68.16774414 139.04358398 -67.59399414 138.76733398 C-50.18608738 129.82813862 -42.76426869 111.62190927 -37.03149414 93.82983398 C-34.36149944 85.29460502 -34.09977107 77.00991668 -34.09399414 68.14233398 C-34.08174805 67.1568457 -34.06950195 66.17135742 -34.05688477 65.15600586 C-34.03382289 53.55588164 -36.31384279 43.52685919 -44.06665039 34.50170898 C-55.12742925 24.05415605 -69.24884256 21.90547357 -83.82836914 22.20092773 C-102.66237705 23.12022238 -118.27288888 33.88669815 -130.90649414 47.26733398 C-156.24067479 76.65858983 -164.5577816 115.75471042 -162.03540039 153.67358398 C-160.37809043 170.75925364 -154.70296571 186.70472215 -146.28149414 201.57983398 C-145.72719727 202.57370117 -145.17290039 203.56756836 -144.60180664 204.59155273 C-129.9978636 229.08285435 -106.35986432 240.95391154 -80.28149414 249.57983398 C-83.21446033 252.51280018 -86.89119831 253.07135941 -90.78149414 254.20483398 C-122.0828456 263.77384108 -150.69408816 282.95795318 -171.28149414 308.57983398 C-172.18996641 309.67650462 -173.09886326 310.7728236 -174.00805664 311.86889648 C-207.38208424 352.45893005 -231.96332139 407.57308809 -227.05444336 461.0534668 C-224.6461387 482.55406324 -217.55265379 503.25074523 -200.71899414 517.76733398 C-190.39882502 525.57462885 -178.97401006 529.57737395 -166.28149414 531.57983398 C-165.18579102 531.7615918 -164.09008789 531.94334961 -162.96118164 532.13061523 C-126.11895181 536.62833968 -88.37138117 523.73613387 -56.28149414 506.57983398 C-55.37343018 506.10078613 -55.37343018 506.10078613 -54.44702148 505.61206055 C-29.10957222 492.14705514 -10.97925877 472.27058079 4.71850586 448.57983398 C9.75474214 450.17537022 14.5819006 451.81850448 19.28100586 454.26733398 C20.12791992 454.70432617 20.97483398 455.14131836 21.84741211 455.59155273 C22.46487305 455.91768555 23.08233398 456.24381836 23.71850586 456.57983398 C22.80751808 462.00416302 20.57386018 466.24903141 18.03100586 471.07983398 C17.54696289 471.99966064 17.06291992 472.9194873 16.56420898 473.8671875 C0.11738887 504.45026783 -23.51103256 533.56852508 -51.28149414 554.57983398 C-51.81500488 554.98975586 -52.34851563 555.39967773 -52.89819336 555.82202148 C-99.94357224 591.86925994 -157.2554235 614.03818633 -216.83691406 613.89550781 C-219.58121592 613.89234869 -222.32443367 613.91591879 -225.06860352 613.94116211 C-237.38695045 613.98528675 -249.17164477 612.80900134 -261.28149414 610.57983398 C-262.87948853 610.28967407 -262.87948853 610.28967407 -264.50976562 609.99365234 C-286.78871296 605.62897324 -308.05809361 596.55422849 -325.28149414 581.57983398 C-326.11293945 580.88116211 -326.94438477 580.18249023 -327.80102539 579.46264648 C-334.06126836 574.05825854 -339.2763638 568.1531759 -344.28149414 561.57983398 C-345.17288086 560.41194336 -345.17288086 560.41194336 -346.08227539 559.22045898 C-363.44685413 535.42899019 -373.22153793 506.31214303 -373.51977539 476.82983398 C-373.52956924 476.02231186 -373.5393631 475.21478973 -373.54945374 474.38279724 C-373.72551144 456.09306366 -373.37007315 438.50065537 -369.28149414 420.57983398 C-369.07250488 419.62979492 -368.86351562 418.67975586 -368.64819336 417.70092773 C-355.73472653 360.20456307 -321.6490774 304.55182095 -271.28149414 272.57983398 C-255.12959926 262.63697921 -238.42386116 255.9633842 -220.28149414 250.57983398 C-220.81516602 250.17893555 -221.34883789 249.77803711 -221.89868164 249.36499023 C-248.74783002 228.87974035 -265.21208307 201.3284625 -269.74243164 167.79467773 C-275.02586749 121.96130764 -258.37393003 76.56615482 -230.15649414 40.8684082 C-224.88674666 34.43629715 -219.17153574 28.44262265 -213.28149414 22.57983398 C-212.37141602 21.66975586 -211.46133789 20.75967773 -210.52368164 19.82202148 C-198.07713102 7.9844764 -183.52904586 -1.60300657 -168.28149414 -9.42016602 C-167.60795898 -9.76917969 -166.93442383 -10.11819336 -166.24047852 -10.4777832 C-151.08556332 -18.24127847 -135.0702737 -23.50959688 -118.28149414 -26.42016602 C-117.1484082 -26.62512695 -116.01532227 -26.83008789 -114.84790039 -27.04125977 C-75.82132253 -33.02946483 -30.54137716 -26.80286453 0 0 Z " fill="#4A4B11" transform="translate(657.281494140625,310.420166015625)"/>
<path d="M0 0 C29.04 0 58.08 0 88 0 C81.25524305 12.36538774 81.25524305 12.36538774 78.625 16.33203125 C78.03984619 17.22067871 77.45469238 18.10932617 76.85180664 19.02490234 C76.24071045 19.94480957 75.62961426 20.8647168 75 21.8125 C73.66434296 23.84177586 72.32973212 25.87174066 70.99609375 27.90234375 C69.99231689 29.42964111 69.99231689 29.42964111 68.96826172 30.98779297 C65.95992433 35.59172087 63.00759841 40.23044882 60.0625 44.875 C58.90498443 46.69924192 57.74743188 48.52346037 56.58984375 50.34765625 C56.0057373 51.26820801 55.42163086 52.18875977 54.81982422 53.13720703 C51.59963252 58.20293924 48.36213852 63.25758671 45.125 68.3125 C44.45734619 69.35519043 43.78969238 70.39788086 43.10180664 71.47216797 C41.74535989 73.59038322 40.38883294 75.70854713 39.03222656 77.82666016 C35.68695051 83.05033844 32.34356187 88.27522441 29 93.5 C27.66667591 95.58333925 26.33334257 97.66667258 25 99.75 C24.34 100.78125 23.68 101.8125 23 102.875 C21 106 19 109.125 17 112.25 C16.3387915 113.28318359 15.67758301 114.31636719 14.99633789 115.38085938 C13.67537816 117.44476808 12.35425438 119.50857179 11.03295898 121.57226562 C7.89060523 126.48066338 4.75002341 131.39017113 1.61514282 136.30334473 C0.12435971 138.63956995 -1.3673476 140.97520434 -2.85913086 143.31079102 C-3.91936328 144.97158978 -4.97824818 146.63324854 -6.03710938 148.29492188 C-6.67326172 149.29072266 -7.30941406 150.28652344 -7.96484375 151.3125 C-8.5280835 152.19550781 -9.09132324 153.07851562 -9.67163086 153.98828125 C-11 156 -11 156 -12 157 C-13.96369153 157.0940067 -15.93079199 157.11743381 -17.89672852 157.11352539 C-19.15796036 157.11344986 -20.4191922 157.11337433 -21.71864319 157.11329651 C-23.10539794 157.1081891 -24.49215229 157.10297309 -25.87890625 157.09765625 C-27.28995209 157.09579201 -28.70099857 157.09436814 -30.11204529 157.09336853 C-33.83240535 157.08954379 -37.5527266 157.0797139 -41.27307129 157.06866455 C-45.06680781 157.05844948 -48.86055058 157.05387071 -52.65429688 157.04882812 C-60.10288231 157.03809158 -67.55143572 157.0210157 -75 157 C-70.07434546 145.39143593 -64.69818884 134.04258379 -59.12625122 122.73150635 C-56.77905703 117.96633313 -54.44310481 113.19564852 -52.10546875 108.42578125 C-51.65211655 107.5015033 -51.19876434 106.57722534 -50.73167419 105.62493896 C-47.47185197 98.9755283 -44.24453621 92.3120494 -41.0625 85.625 C-37.09036485 77.27810071 -33.08513327 68.94766151 -29.0625 60.625 C-24.61528985 51.42132411 -20.17421794 42.21475852 -15.75 33 C-15.3156665 32.09588379 -14.88133301 31.19176758 -14.43383789 30.26025391 C-9.59917879 20.18455698 -4.80481823 10.09011828 0 0 Z " fill="#60621A" transform="translate(628,76)"/>
</svg>
